<svg width="16" height="16" viewBox="0 0 16 16" fill="none" xmlns="http://www.w3.org/2000/svg">
<path d="M7.99966 10.6667C7.90766 10.6667 7.83299 10.7413 7.83366 10.8333C7.83366 10.9253 7.90833 11 8.00033 11C8.09233 11 8.16699 10.9253 8.16699 10.8333C8.16699 10.7413 8.09233 10.6667 7.99966 10.6667" stroke="#F36A6A" stroke-linecap="round" stroke-linejoin="round"/>
<path fill-rule="evenodd" clip-rule="evenodd" d="M8 14V14C4.686 14 2 11.314 2 8V8C2 4.686 4.686 2 8 2V2C11.314 2 14 4.686 14 8V8C14 11.314 11.314 14 8 14Z" stroke="#F36A6A" stroke-linecap="round" stroke-linejoin="round"/>
<path d="M8.00033 5.16675V8.50008" stroke="#F36A6A" stroke-linecap="round" stroke-linejoin="round"/>
</svg>
