<svg width="24" height="24" viewBox="0 0 24 24" fill="none" xmlns="http://www.w3.org/2000/svg">
<path d="M20.7933 9.52221C21.5833 10.3122 21.5833 11.5931 20.7933 12.3832C20.0033 13.1732 18.7224 13.1732 17.9324 12.3832C17.1423 11.5931 17.1423 10.3122 17.9324 9.52221C18.7224 8.73218 20.0033 8.73218 20.7933 9.52221" stroke="#667085" stroke-width="1.5" stroke-linecap="round" stroke-linejoin="round"/>
<path d="M14.2044 5.91236C15.4208 7.12884 15.4208 9.10115 14.2044 10.3176C12.9879 11.5341 11.0156 11.5341 9.79908 10.3176C8.5826 9.10116 8.5826 7.12885 9.79908 5.91236C11.0156 4.69588 12.9879 4.69588 14.2044 5.91236" stroke="#667085" stroke-width="1.5" stroke-linecap="round" stroke-linejoin="round"/>
<path d="M6.06675 9.52221C6.85679 10.3122 6.85679 11.5931 6.06675 12.3832C5.27672 13.1732 3.99583 13.1732 3.2058 12.3832C2.41577 11.5931 2.41577 10.3122 3.2058 9.52221C3.99584 8.73218 5.27672 8.73218 6.06675 9.52221" stroke="#667085" stroke-width="1.5" stroke-linecap="round" stroke-linejoin="round"/>
<path d="M23.0002 19.0023V17.9063C23.0002 16.5253 21.8812 15.4062 20.5002 15.4062H19.6992" stroke="#667085" stroke-width="1.5" stroke-linecap="round" stroke-linejoin="round"/>
<path d="M1 19.0023V17.9063C1 16.5253 2.119 15.4062 3.5 15.4062H4.301" stroke="#667085" stroke-width="1.5" stroke-linecap="round" stroke-linejoin="round"/>
<path d="M17.3392 18.9994V17.3984C17.3392 15.4654 15.7722 13.8984 13.8392 13.8984H10.1602C8.22716 13.8984 6.66016 15.4654 6.66016 17.3984V18.9994" stroke="#667085" stroke-width="1.5" stroke-linecap="round" stroke-linejoin="round"/>
</svg>
