<svg width="94" height="32" viewBox="0 0 94 32" fill="none" xmlns="http://www.w3.org/2000/svg">
<path d="M36.0513 8.18262C36.4975 8.18262 36.872 8.33401 37.1747 8.63678C37.4775 8.92363 37.6289 9.29015 37.6289 9.73635C37.6289 10.1825 37.4775 10.557 37.1747 10.8598C36.872 11.1467 36.4975 11.2901 36.0513 11.2901C35.6051 11.2901 35.2306 11.1467 34.9278 10.8598C34.625 10.557 34.4736 10.1825 34.4736 9.73635C34.4736 9.29015 34.625 8.92363 34.9278 8.63678C35.2306 8.33401 35.6051 8.18262 36.0513 8.18262ZM34.7605 13.0828H37.3421V25.3215H34.7605V13.0828Z" fill="#323232"/>
<path d="M46.3266 12.9394C47.7768 12.9394 48.956 13.3856 49.8644 14.278C50.7886 15.1704 51.2508 16.6046 51.2508 18.5807V25.3215H48.6453V18.7241C48.6453 17.5608 48.3983 16.6764 47.9043 16.0708C47.4103 15.4652 46.6852 15.1625 45.729 15.1625C44.7092 15.1625 43.9044 15.521 43.3148 16.2381C42.7411 16.9393 42.4543 17.9114 42.4543 19.1544V25.3215H39.8727V13.0828H42.1196L42.4064 14.6844C43.3307 13.5211 44.6374 12.9394 46.3266 12.9394Z" fill="#323232"/>
<path d="M54.3874 15.3537H52.2599V13.0828H54.3874V9.66464H56.9929V13.0828H59.933V15.3537H56.9929V21.7359C56.9929 22.214 57.0885 22.5566 57.2797 22.7638C57.4709 22.955 57.7976 23.0506 58.2597 23.0506H60.2198V25.3215H57.7339C56.5706 25.3215 55.718 25.0506 55.1762 24.5088C54.6503 23.9669 54.3874 23.1303 54.3874 21.9989V15.3537Z" fill="#323232"/>
<path d="M68.37 13.0828V15.4971H67.2227C66.155 15.4971 65.3821 15.8477 64.904 16.5489C64.4259 17.2341 64.1869 18.1106 64.1869 19.1783V25.3215H61.6053V13.0828H63.9001L64.1869 14.9234C64.5375 14.3497 64.9917 13.9035 65.5494 13.5848C66.1072 13.2502 66.8561 13.0828 67.7963 13.0828H68.37Z" fill="#323232"/>
<path d="M81.2548 23.0745V25.3215H79.8923C79.0955 25.3215 78.5218 25.1542 78.1712 24.8195C77.8207 24.4849 77.6454 23.9988 77.6454 23.3614C76.7211 24.7637 75.3745 25.4649 73.6057 25.4649C72.2352 25.4649 71.1356 25.1462 70.307 24.5088C69.4783 23.8713 69.064 22.9949 69.064 21.8794C69.064 20.6204 69.5102 19.6563 70.4026 18.987C71.295 18.3018 72.5937 17.9592 74.2989 17.9592H77.3824V17.2182C77.3824 16.5329 77.1434 15.9991 76.6653 15.6166C76.1872 15.2182 75.5259 15.019 74.6813 15.019C73.9323 15.019 73.3108 15.1864 72.8168 15.521C72.3388 15.8397 72.0519 16.27 71.9563 16.8118H69.4225C69.55 15.5848 70.0918 14.6366 71.048 13.9673C72.0041 13.282 73.2551 12.9394 74.8008 12.9394C76.4422 12.9394 77.7091 13.3219 78.6015 14.0868C79.4939 14.8517 79.9401 15.9513 79.9401 17.3855V22.214C79.9401 22.7877 80.211 23.0745 80.7528 23.0745H81.2548ZM77.3824 19.8715H74.1793C73.3826 19.8715 72.769 20.0308 72.3388 20.3495C71.9085 20.6523 71.6934 21.1065 71.6934 21.712C71.6934 22.2379 71.8926 22.6602 72.291 22.9789C72.7053 23.2976 73.263 23.457 73.9642 23.457C75.0319 23.457 75.8606 23.1702 76.4502 22.5965C77.0557 22.0228 77.3665 21.2579 77.3824 20.3017V19.8715Z" fill="#323232"/>
<path d="M93.9435 20.9232C93.7045 22.3415 93.0909 23.457 92.1029 24.2697C91.1149 25.0665 89.848 25.4649 88.3022 25.4649C87.0911 25.4649 86.0234 25.2099 85.0992 24.7C84.1749 24.1741 83.4578 23.4331 82.9478 22.477C82.4538 21.5208 82.2068 20.4212 82.2068 19.1783C82.2068 17.9353 82.4618 16.8437 82.9717 15.9035C83.4817 14.9633 84.1988 14.2382 85.1231 13.7282C86.0633 13.2024 87.1469 12.9394 88.374 12.9394C89.9038 12.9394 91.1547 13.3458 92.1268 14.1585C93.0989 14.9553 93.7045 16.0469 93.9435 17.4333H91.2902C91.1149 16.7321 90.7643 16.1744 90.2384 15.7601C89.7126 15.3457 89.0672 15.1386 88.3022 15.1386C87.2664 15.1386 86.4298 15.513 85.7924 16.262C85.1709 17.011 84.8601 17.9831 84.8601 19.1783C84.8601 20.3894 85.1709 21.3774 85.7924 22.1423C86.4298 22.8913 87.2664 23.2658 88.3022 23.2658C89.099 23.2658 89.7604 23.0586 90.2862 22.6443C90.8121 22.214 91.1547 21.6403 91.3141 20.9232H93.9435Z" fill="#323232"/>
<path d="M11.2785 8.69141C12.1989 8.16003 13.3494 8.82425 13.3494 9.88702L13.3494 22.1133C13.3494 23.176 12.1989 23.8402 11.2785 23.3089L0.690284 17.1957C-0.230095 16.6644 -0.230094 15.3359 0.690285 14.8045L11.2785 8.69141Z" fill="url(#paint0_linear_1045_281)"/>
<path d="M11.2785 8.69141C12.1989 8.16003 13.3494 8.82425 13.3494 9.88702L13.3494 22.1133C13.3494 23.176 12.1989 23.8402 11.2785 23.3089L0.690284 17.1957C-0.230095 16.6644 -0.230094 15.3359 0.690285 14.8045L11.2785 8.69141Z" fill="url(#paint1_linear_1045_281)"/>
<path d="M26.0085 17.1955C26.9289 16.6641 28.0794 17.3284 28.0794 18.3911V30.6174C28.0794 31.6801 26.9289 32.3444 26.0085 31.813L15.4203 25.6999C14.4999 25.1685 14.4999 23.84 15.4203 23.3086L26.0085 17.1955Z" fill="url(#paint2_linear_1045_281)"/>
<path d="M26.0085 17.1955C26.9289 16.6641 28.0794 17.3284 28.0794 18.3911V30.6174C28.0794 31.6801 26.9289 32.3444 26.0085 31.813L15.4203 25.6999C14.4999 25.1685 14.4999 23.84 15.4203 23.3086L26.0085 17.1955Z" fill="url(#paint3_linear_1045_281)"/>
<path d="M26.0085 0.187021C26.9289 -0.344361 28.0794 0.319866 28.0794 1.38263V13.6089C28.0794 14.6716 26.9289 15.3359 26.0085 14.8045L15.4203 8.69136C14.4999 8.15997 14.4999 6.83152 15.4203 6.30014L26.0085 0.187021Z" fill="url(#paint4_linear_1045_281)"/>
<path d="M26.0085 0.187021C26.9289 -0.344361 28.0794 0.319866 28.0794 1.38263V13.6089C28.0794 14.6716 26.9289 15.3359 26.0085 14.8045L15.4203 8.69136C14.4999 8.15997 14.4999 6.83152 15.4203 6.30014L26.0085 0.187021Z" fill="url(#paint5_linear_1045_281)"/>
<defs>
<linearGradient id="paint0_linear_1045_281" x1="33.4476" y1="16" x2="-1.48481" y2="23.8299" gradientUnits="userSpaceOnUse">
<stop offset="1" stop-color="white"/>
<stop stop-color="white"/>
</linearGradient>
<linearGradient id="paint1_linear_1045_281" x1="33.4476" y1="16" x2="-1.48481" y2="23.8299" gradientUnits="userSpaceOnUse">
<stop offset="1" stop-color="#433CAC"/>
<stop stop-color="#675EF6"/>
</linearGradient>
<linearGradient id="paint2_linear_1045_281" x1="33.4476" y1="16" x2="-1.48481" y2="23.8299" gradientUnits="userSpaceOnUse">
<stop offset="1" stop-color="white"/>
<stop stop-color="white"/>
</linearGradient>
<linearGradient id="paint3_linear_1045_281" x1="33.4476" y1="16" x2="-1.48481" y2="23.8299" gradientUnits="userSpaceOnUse">
<stop offset="1" stop-color="#433CAC"/>
<stop stop-color="#675EF6"/>
</linearGradient>
<linearGradient id="paint4_linear_1045_281" x1="33.4476" y1="16" x2="-1.48481" y2="23.8299" gradientUnits="userSpaceOnUse">
<stop offset="1" stop-color="white"/>
<stop stop-color="white"/>
</linearGradient>
<linearGradient id="paint5_linear_1045_281" x1="33.4476" y1="16" x2="-1.48481" y2="23.8299" gradientUnits="userSpaceOnUse">
<stop offset="1" stop-color="#433CAC"/>
<stop stop-color="#675EF6"/>
</linearGradient>
</defs>
</svg>
