<svg width="24" height="24" viewBox="0 0 24 24" fill="none" xmlns="http://www.w3.org/2000/svg">
<path d="M4.82031 17.388C6.46631 19.574 9.07331 21 12.0043 21C16.9543 21 21.0043 16.95 21.0043 12C21.0043 7.05 16.9543 3 12.0043 3" stroke="#43A047" stroke-width="1.5" stroke-linecap="round" stroke-linejoin="round"/>
<path d="M4.816 17.388C3.682 15.882 3 14.019 3 12C3 7.05 7.05 3 12 3" stroke="#43A047" stroke-width="1.5" stroke-linecap="round" stroke-linejoin="round"/>
<path d="M11.75 7V8.25" stroke="#43A047" stroke-width="1.5" stroke-linecap="round" stroke-linejoin="round"/>
<path d="M11.75 17V15.75" stroke="#43A047" stroke-width="1.5" stroke-linecap="round" stroke-linejoin="round"/>
<path d="M14.237 10C14.172 9.024 13.367 8.25 12.375 8.25H11.005C10.035 8.25 9.25 9.036 9.25 10.005C9.25 10.81 9.798 11.512 10.578 11.708L12.921 12.296C13.702 12.492 14.249 13.194 14.249 13.999C14.249 14.969 13.463 15.754 12.494 15.754H11.124C10.13 15.754 9.325 14.978 9.261 14" stroke="#43A047" stroke-width="1.5" stroke-linecap="round" stroke-linejoin="round"/>
</svg>
