<svg width="22" height="22" viewBox="0 0 22 22" fill="none" xmlns="http://www.w3.org/2000/svg">
<path d="M16.3479 8.40744L15.7091 8.47994L16.3479 8.40744ZM16.7312 11.7846L17.37 11.7121L16.7312 11.7846ZM5.26824 11.7846L4.62949 11.7121H4.62949L5.26824 11.7846ZM5.65155 8.40744L6.2903 8.47994L5.65155 8.40744ZM4.52639 13.462L4.03687 13.0453L4.03687 13.0453L4.52639 13.462ZM17.473 13.462L16.9835 13.8787H16.9835L17.473 13.462ZM12.9454 4.46328H12.3025C12.3025 4.73806 12.4772 4.98246 12.7372 5.07147L12.9454 4.46328ZM9.05405 4.46328L9.26229 5.07147C9.52226 4.98246 9.69691 4.73806 9.69691 4.46328H9.05405ZM14.1731 18.0829C14.2977 17.7504 14.1292 17.3799 13.7968 17.2553C13.4643 17.1307 13.0938 17.2992 12.9692 17.6317L13.5712 17.8573L14.1731 18.0829ZM9.03026 17.6317C8.90567 17.2992 8.53515 17.1307 8.20269 17.2553C7.87023 17.3799 7.70172 17.7504 7.82632 18.0829L8.42829 17.8573L9.03026 17.6317ZM15.9516 16.143V15.5001H6.04785V16.143V16.7859H15.9516V16.143ZM16.3479 8.40744L15.7091 8.47994L16.0924 11.8571L16.7312 11.7846L17.37 11.7121L16.9867 8.33494L16.3479 8.40744ZM5.26824 11.7846L5.907 11.8571L6.2903 8.47994L5.65155 8.40744L5.01279 8.33495L4.62949 11.7121L5.26824 11.7846ZM4.52639 13.462L5.01592 13.8787C5.51076 13.2973 5.82282 12.5988 5.907 11.8571L5.26824 11.7846L4.62949 11.7121C4.5756 12.187 4.37458 12.6485 4.03687 13.0453L4.52639 13.462ZM16.7312 11.7846L16.0924 11.8571C16.1766 12.5988 16.4887 13.2973 16.9835 13.8787L17.473 13.462L17.9626 13.0453C17.6249 12.6485 17.4238 12.187 17.37 11.7121L16.7312 11.7846ZM6.04785 16.143V15.5001C5.48639 15.5001 5.08923 15.2225 4.90591 14.8994C4.72894 14.5876 4.73155 14.2127 5.01592 13.8787L4.52639 13.462L4.03687 13.0453C3.38093 13.8159 3.36067 14.7815 3.78771 15.534C4.2084 16.2753 5.04213 16.7859 6.04785 16.7859V16.143ZM15.9516 16.143V16.7859C16.9573 16.7859 17.791 16.2753 18.2117 15.534C18.6388 14.7815 18.6185 13.8159 17.9626 13.0453L17.473 13.462L16.9835 13.8787C17.2679 14.2127 17.2705 14.5876 17.0935 14.8994C16.9102 15.2225 16.5131 15.5001 15.9516 15.5001V16.143ZM12.9454 4.46328H13.5882V4.37438H12.9454H12.3025V4.46328H12.9454ZM16.3479 8.40744L16.9867 8.33494C16.7473 6.22608 15.1831 4.54993 13.1536 3.85508L12.9454 4.46328L12.7372 5.07147C14.3804 5.6341 15.5351 6.94672 15.7091 8.47994L16.3479 8.40744ZM9.05405 4.46328H9.69691V4.37438H9.05405H8.4112V4.46328H9.05405ZM5.65155 8.40744L6.2903 8.47994C6.46432 6.94672 7.61904 5.6341 9.26229 5.07147L9.05405 4.46328L8.84581 3.85508C6.81639 4.54993 5.25214 6.22608 5.01279 8.33495L5.65155 8.40744ZM10.9997 2.42871V3.07157C11.7192 3.07157 12.3025 3.65486 12.3025 4.37438H12.9454H13.5882C13.5882 2.94478 12.4293 1.78585 10.9997 1.78585V2.42871ZM10.9997 2.42871V1.78585C9.57012 1.78585 8.4112 2.94478 8.4112 4.37438H9.05405H9.69691C9.69691 3.65486 10.2802 3.07157 10.9997 3.07157V2.42871ZM13.5712 17.8573L12.9692 17.6317C12.6926 18.3698 11.9294 18.9287 10.9997 18.9287V19.5716V20.2144C12.4444 20.2144 13.7011 19.3423 14.1731 18.0829L13.5712 17.8573ZM10.9997 19.5716V18.9287C10.0701 18.9287 9.30688 18.3698 9.03026 17.6317L8.42829 17.8573L7.82632 18.0829C8.29831 19.3423 9.55503 20.2144 10.9997 20.2144V19.5716Z" fill="#667085"/>
</svg>
