<svg width="24" height="24" viewBox="0 0 24 24" fill="none" xmlns="http://www.w3.org/2000/svg">
<path d="M12.3539 6.76375C12.5489 6.95883 12.5489 7.27596 12.3539 7.47104C12.1588 7.66612 11.8416 7.66612 11.6466 7.47104C11.4515 7.27596 11.4515 6.95883 11.6466 6.76375C11.8416 6.56867 12.1578 6.56867 12.3539 6.76375" stroke="#667085" stroke-width="1.5" stroke-linecap="round" stroke-linejoin="round"/>
<path d="M16.3101 7.22095V7.22095C16.3101 8.39244 15.7899 9.5019 14.8905 10.2522L13.4769 11.4307C12.9137 11.9009 12.4925 12.5182 12.2604 13.2144L11.9983 13.9968L11.7372 13.2134C11.5051 12.5182 11.0839 11.8999 10.5207 11.4297L9.10709 10.2512C8.20672 9.5009 7.6875 8.39144 7.6875 7.21995V7.21995V7.24196C7.6865 4.55284 9.91443 2.99219 11.9983 2.99219C14.0822 2.99219 16.3101 4.55284 16.3101 7.24296" stroke="#667085" stroke-width="1.5" stroke-linecap="round" stroke-linejoin="round"/>
<path d="M5.99799 11.9922C5.04459 11.9922 4.22325 12.6655 4.03617 13.6009L3.03576 18.6029C2.78765 19.8405 3.73505 20.9959 4.99757 20.9959H19.0024C20.2649 20.9959 21.2123 19.8405 20.9642 18.6029L19.9638 13.6009C19.7767 12.6655 18.9554 11.9922 18.002 11.9922" stroke="#667085" stroke-width="1.5" stroke-linecap="round" stroke-linejoin="round"/>
</svg>
